<?xml version="1.0" encoding="UTF-8"?>
<!DOCTYPE svg PUBLIC "-//W3C//DTD SVG 1.1//EN" "http://www.w3.org/Graphics/SVG/1.1/DTD/svg11.dtd">
<!-- Creator: CorelDRAW 2018 (64-Bit) -->
<svg xmlns="http://www.w3.org/2000/svg" xml:space="preserve" width="35.2193mm" height="35.268mm" version="1.1" style="shape-rendering:geometricPrecision; text-rendering:geometricPrecision; image-rendering:optimizeQuality; fill-rule:evenodd; clip-rule:evenodd"
viewBox="0 0 983.13 984.49"
 xmlns:xlink="http://www.w3.org/1999/xlink">
 <defs>
  <style type="text/css">
   <![CDATA[
    .str0 {stroke:#FEFEFE;stroke-width:5.58;stroke-miterlimit:22.9256}
    .fil2 {fill:none}
    .fil0 {fill:#1F2746;fill-rule:nonzero}
    .fil1 {fill:#F1359F;fill-rule:nonzero}
   ]]>
  </style>
 </defs>
 <g id="Слой_x0020_1">
  <metadata id="CorelCorpID_0Corel-Layer"/>
  <polygon class="fil0" points="95.78,73.49 378.32,73.49 348.77,120.66 119.36,120.66 119.36,867.47 866.17,867.47 866.17,120.66 453.5,120.66 483.06,73.49 913.34,73.49 913.34,914.64 72.19,914.64 72.19,73.49 "/>
  <path class="fil1" d="M757.3 709.95c-27.39,33.14 -60.9,60.03 -98.28,79.49 -44,22.9 -93.33,35.52 -144.29,35.93 -87.83,0.7 -167.62,-34.28 -225.63,-91.37 -58,-57.09 -94.23,-136.32 -94.93,-224.14 -0.26,-32.78 4.63,-65.38 14.31,-96.63 9.66,-31.17 24.1,-60.84 42.93,-87.84l31.33 21.92c-16.61,23.81 -29.3,49.87 -37.76,77.17 -8.44,27.22 -12.69,55.9 -12.46,85.08 0.61,77.23 32.47,146.91 83.47,197.11 51.01,50.2 121.18,80.95 198.42,80.34 44.85,-0.35 88.25,-11.46 126.94,-31.59 22.96,-11.95 44.27,-27.09 63.23,-45.05l52.71 -0.42z"/>
  <path class="fil1" d="M357.84 230.69l69.34 93.99 16.03 -30.76c-34.51,-81.42 -29.93,-72.71 -49.82,-119.59l46.6 -74.39c6.77,-10.81 0.53,-22.16 -9.03,-27.98 -9.42,-6.08 -22.35,-6.74 -29.12,4.08l-46.6 74.37c-50.86,2.55 -41.05,2.88 -129.35,7.34l-20.7 27.85 114.82 21.39c0,0 -57.72,91.57 -58.4,93.13l-47.07 1.9 -11.08 17.69 51.21 11.88 19.56 12.25 33.03 40.9 11.08 -17.67 -18.84 -43.2c1.12,-1.29 58.34,-93.17 58.34,-93.17z"/>
  <path class="fil1" d="M320.69 462.48c0,-3.51 0.67,-6.8 2,-9.88 1.35,-3.07 3.17,-5.75 5.47,-8.07 2.3,-2.3 5,-4.12 8.08,-5.47 3.06,-1.33 6.37,-2 9.87,-2l38.9 0 0 16.97 -38.9 0c-1.17,0 -2.29,0.2 -3.32,0.65 -1.02,0.42 -1.91,1.02 -2.68,1.79 -0.77,0.76 -1.37,1.67 -1.79,2.68 -0.44,1.03 -0.67,2.14 -0.67,3.33 0,1.17 0.23,2.28 0.67,3.33 0.42,1.05 1.02,1.96 1.79,2.72 0.77,0.77 1.66,1.37 2.68,1.79 1.03,0.44 2.15,0.64 3.32,0.64l16.97 0c3.51,0 6.81,0.67 9.91,2 3.08,1.31 5.79,3.13 8.08,5.43 2.31,2.3 4.12,5.01 5.46,8.09 1.3,3.11 1.97,6.4 1.97,9.91 0,3.51 -0.67,6.8 -1.97,9.88 -1.34,3.07 -3.15,5.75 -5.46,8.05 -2.29,2.32 -5,4.14 -8.08,5.47 -3.09,1.35 -6.4,2.02 -9.91,2.02l-37.66 0 0 -16.97 37.66 0c1.18,0 2.28,-0.22 3.31,-0.64 1.02,-0.45 1.92,-1.03 2.7,-1.8 0.77,-0.77 1.36,-1.67 1.8,-2.7 0.42,-1.01 0.64,-2.12 0.64,-3.31 0,-1.17 -0.22,-2.28 -0.64,-3.31 -0.44,-1.03 -1.03,-1.91 -1.8,-2.68 -0.78,-0.77 -1.67,-1.37 -2.7,-1.79 -1.03,-0.44 -2.13,-0.67 -3.31,-0.67l-16.97 0c-3.5,0 -6.81,-0.66 -9.87,-2 -3.07,-1.35 -5.77,-3.17 -8.08,-5.47 -2.29,-2.32 -4.12,-5 -5.47,-8.11 -1.33,-3.09 -2,-6.4 -2,-9.89zm93.44 59.34l-16.25 0 0 -88.5 16.25 0 0 55.81 24.07 -30.51 18.56 0 -20.99 26.37 20.99 36.82 -18.56 0 -12.83 -23 -11.24 14.91 0 8.09zm64.26 24.11l0 -16.24 8.98 0.12c1.58,0 3.08,-0.26 4.54,-0.78 1.47,-0.5 2.83,-1.21 4.05,-2.12 1.26,-0.91 2.34,-1.98 3.3,-3.23 0.95,-1.23 1.71,-2.58 2.29,-4.04 -1.77,0.75 -3.57,1.49 -5.41,2.24 -1.83,0.75 -3.67,1.13 -5.52,1.13 -3.9,0 -7.57,-0.71 -11,-2.08 -3.43,-1.37 -6.43,-3.35 -9.02,-5.87 -2.58,-2.54 -4.6,-5.65 -6.07,-9.28 -1.5,-3.65 -2.22,-7.75 -2.22,-12.27l0 -35 16.08 0 0 35c0,2.24 0.32,4.2 0.96,5.87 0.65,1.67 1.54,3.09 2.63,4.2 1.11,1.13 2.4,1.96 3.87,2.52 1.48,0.55 3.07,0.83 4.76,0.83 1.66,0 3.23,-0.39 4.7,-1.15 1.48,-0.79 2.77,-1.79 3.88,-3.05 1.1,-1.27 1.97,-2.7 2.6,-4.29 0.62,-1.6 0.95,-3.23 0.95,-4.92l0 -35 16.25 0 0 55.32c-0.05,4.46 -0.92,8.63 -2.61,12.55 -1.69,3.9 -4,7.31 -6.93,10.21 -2.93,2.93 -6.36,5.22 -10.25,6.92 -3.92,1.69 -8.1,2.54 -12.54,2.54l-8.27 -0.12z"/>
  <path class="fil0" d="M392.85 601.13c0,3.51 -0.67,6.8 -2.02,9.89 -1.34,3.07 -3.15,5.74 -5.47,8.05 -2.3,2.32 -4.99,4.14 -8.05,5.47 -3.09,1.35 -6.38,2.02 -9.89,2.02l-42.37 0 0 -84.76 42.37 0c3.51,0 6.79,0.66 9.89,2 3.06,1.35 5.75,3.17 8.05,5.47 2.31,2.33 4.13,5.01 5.47,8.08 1.35,3.09 2.02,6.37 2.02,9.88 0,1.57 -0.23,3.19 -0.65,4.84 -0.44,1.66 -1.06,3.25 -1.83,4.78 -0.79,1.54 -1.73,2.95 -2.84,4.2 -1.09,1.27 -2.33,2.3 -3.65,3.13 1.37,0.75 2.62,1.77 3.71,3.05 1.1,1.29 2.06,2.7 2.85,4.24 0.79,1.53 1.39,3.13 1.79,4.8 0.42,1.67 0.63,3.31 0.63,4.88zm-50.85 8.46l25.43 0c1.19,0 2.3,-0.22 3.31,-0.64 1.04,-0.45 1.94,-1.03 2.71,-1.8 0.76,-0.76 1.35,-1.67 1.79,-2.7 0.42,-1.01 0.65,-2.12 0.65,-3.31 0,-1.17 -0.23,-2.28 -0.65,-3.31 -0.44,-1.03 -1.03,-1.91 -1.79,-2.68 -0.77,-0.77 -1.67,-1.37 -2.71,-1.79 -1,-0.45 -2.12,-0.66 -3.31,-0.66l-25.43 0 0 16.91zm0 -33.88l25.43 0c1.19,0 2.3,-0.2 3.31,-0.65 1.04,-0.42 1.94,-1.03 2.71,-1.79 0.76,-0.77 1.35,-1.68 1.79,-2.73 0.42,-1.04 0.65,-2.16 0.65,-3.33 0,-1.19 -0.23,-2.3 -0.65,-3.33 -0.44,-1.01 -1.03,-1.92 -1.79,-2.68 -0.77,-0.77 -1.67,-1.37 -2.71,-1.8 -1,-0.44 -2.12,-0.65 -3.31,-0.65l-25.43 0 0 16.95zm123.14 18.62c0,4.74 -0.85,9.14 -2.54,13.22 -1.69,4.08 -4,7.61 -6.92,10.57 -2.91,2.98 -6.33,5.33 -10.25,7.04 -3.91,1.71 -8.13,2.58 -12.62,2.58 -4.44,0 -8.65,-0.87 -12.56,-2.58 -3.93,-1.72 -7.35,-4.06 -10.29,-7.04 -2.93,-2.97 -5.25,-6.5 -6.93,-10.57 -1.71,-4.08 -2.55,-8.48 -2.55,-13.22 0,-4.8 0.85,-9.26 2.55,-13.36 1.68,-4.09 4.01,-7.63 6.93,-10.61 2.94,-2.96 6.36,-5.31 10.29,-7 3.91,-1.69 8.11,-2.54 12.56,-2.54 4.49,0 8.71,0.81 12.62,2.4 3.92,1.6 7.35,3.85 10.25,6.8 2.92,2.92 5.23,6.46 6.92,10.57 1.69,4.11 2.54,8.69 2.54,13.74zm-16.26 0c0,-2.6 -0.42,-4.95 -1.27,-7.06 -0.85,-2.09 -2,-3.91 -3.46,-5.43 -1.45,-1.54 -3.16,-2.69 -5.12,-3.49 -1.94,-0.81 -4.02,-1.21 -6.23,-1.21 -2.21,0 -4.28,0.4 -6.24,1.21 -1.93,0.8 -3.63,1.95 -5.08,3.49 -1.43,1.51 -2.56,3.33 -3.39,5.43 -0.83,2.12 -1.25,4.46 -1.25,7.06 0,2.45 0.42,4.72 1.25,6.8 0.83,2.1 1.96,3.91 3.39,5.45 1.45,1.53 3.15,2.74 5.08,3.63 1.96,0.89 4.04,1.33 6.24,1.33 2.21,0 4.29,-0.42 6.23,-1.25 1.96,-0.83 3.67,-1.98 5.12,-3.49 1.46,-1.49 2.6,-3.31 3.46,-5.43 0.85,-2.13 1.27,-4.48 1.27,-7.04zm86.37 0c0,4.74 -0.85,9.14 -2.54,13.22 -1.69,4.08 -4,7.61 -6.93,10.57 -2.9,2.98 -6.33,5.33 -10.25,7.04 -3.91,1.71 -8.12,2.58 -12.63,2.58 -4.44,0 -8.63,-0.87 -12.55,-2.58 -3.94,-1.72 -7.35,-4.06 -10.29,-7.04 -2.93,-2.97 -5.25,-6.5 -6.94,-10.57 -1.69,-4.08 -2.54,-8.48 -2.54,-13.22 0,-4.8 0.85,-9.26 2.54,-13.36 1.69,-4.09 4.02,-7.63 6.94,-10.61 2.94,-2.96 6.35,-5.31 10.29,-7 3.92,-1.69 8.11,-2.54 12.55,-2.54 4.5,0 8.72,0.81 12.63,2.4 3.92,1.6 7.35,3.85 10.25,6.8 2.93,2.92 5.23,6.46 6.93,10.57 1.69,4.11 2.54,8.69 2.54,13.74zm-16.26 0c0,-2.6 -0.42,-4.95 -1.27,-7.06 -0.85,-2.09 -2,-3.91 -3.46,-5.43 -1.45,-1.54 -3.16,-2.69 -5.13,-3.49 -1.93,-0.81 -4.01,-1.21 -6.22,-1.21 -2.21,0 -4.28,0.4 -6.24,1.21 -1.93,0.8 -3.62,1.95 -5.08,3.49 -1.43,1.51 -2.56,3.33 -3.39,5.43 -0.83,2.12 -1.25,4.46 -1.25,7.06 0,2.45 0.42,4.72 1.25,6.8 0.83,2.1 1.96,3.91 3.39,5.45 1.46,1.53 3.15,2.74 5.08,3.63 1.96,0.89 4.04,1.33 6.24,1.33 2.22,0 4.3,-0.42 6.22,-1.25 1.97,-0.83 3.68,-1.98 5.13,-3.49 1.46,-1.49 2.61,-3.31 3.46,-5.43 0.85,-2.13 1.27,-4.48 1.27,-7.04zm41.44 32.22l-16.24 0 0 -88.5 16.24 0 0 55.81 24.08 -30.51 18.56 0 -20.98 26.37 20.98 36.82 -18.56 0 -12.84 -23 -11.24 14.91 0 8.09zm68.04 -80.51c0,1.49 -0.28,2.89 -0.85,4.2 -0.58,1.29 -1.35,2.42 -2.33,3.39 -0.99,0.97 -2.15,1.73 -3.48,2.3 -1.31,0.59 -2.73,0.87 -4.22,0.87 -1.5,0 -2.91,-0.28 -4.22,-0.87 -1.34,-0.57 -2.48,-1.33 -3.44,-2.3 -0.97,-0.97 -1.73,-2.1 -2.31,-3.39 -0.57,-1.31 -0.85,-2.7 -0.85,-4.2 0,-1.48 0.28,-2.84 0.85,-4.18 0.58,-1.31 1.35,-2.46 2.31,-3.43 0.95,-0.97 2.1,-1.74 3.44,-2.3 1.31,-0.57 2.72,-0.85 4.22,-0.85 1.49,0 2.91,0.28 4.22,0.85 1.33,0.56 2.48,1.33 3.48,2.3 0.99,0.97 1.75,2.12 2.33,3.43 0.57,1.33 0.85,2.7 0.85,4.18zm-2.79 80.51l-16.24 0 0 -63.32 16.24 0 0 63.32zm28.43 0l-16.12 0 0 -63.32 3.9 0 5.33 6.16c2.6,-2.36 5.54,-4.19 8.83,-5.47 3.29,-1.27 6.72,-1.91 10.31,-1.91 3.86,0 7.51,0.73 10.94,2.22 3.43,1.47 6.41,3.49 8.97,6.07 2.57,2.58 4.59,5.61 6.07,9.06 1.48,3.45 2.21,7.13 2.21,11.02l0 36.18 -16.13 0 0 -36.18c0,-1.66 -0.32,-3.23 -0.95,-4.7 -0.65,-1.47 -1.5,-2.76 -2.6,-3.87 -1.11,-1.09 -2.38,-1.96 -3.86,-2.6 -1.45,-0.63 -3,-0.95 -4.66,-0.95 -1.69,0 -3.29,0.32 -4.78,0.95 -1.52,0.64 -2.81,1.51 -3.92,2.6 -1.09,1.11 -1.96,2.4 -2.6,3.87 -0.63,1.47 -0.95,3.05 -0.95,4.7l0 36.18zm96.96 -32.22c0,-2.2 -0.42,-4.34 -1.27,-6.41 -0.86,-2.06 -2,-3.89 -3.46,-5.49 -1.47,-1.59 -3.17,-2.89 -5.12,-3.84 -1.94,-0.97 -4.02,-1.45 -6.24,-1.45 -2.2,0 -4.27,0.36 -6.22,1.11 -1.94,0.77 -3.63,1.86 -5.09,3.31 -1.43,1.47 -2.56,3.26 -3.39,5.42 -0.83,2.14 -1.25,4.6 -1.25,7.35 0,2.64 0.42,5.02 1.25,7.12 0.83,2.12 1.96,3.92 3.39,5.41 1.46,1.51 3.15,2.66 5.09,3.47 1.95,0.81 4.03,1.21 6.22,1.21 2.22,0 4.3,-0.49 6.24,-1.45 1.95,-0.97 3.65,-2.24 5.12,-3.83 1.46,-1.6 2.6,-3.43 3.46,-5.51 0.85,-2.06 1.27,-4.2 1.27,-6.42zm16.26 24.24c0,4.46 -0.85,8.63 -2.54,12.55 -1.69,3.9 -4.02,7.31 -6.94,10.21 -2.94,2.93 -6.37,5.23 -10.29,6.92 -3.93,1.69 -8.1,2.54 -12.58,2.54l-8.08 -0.12 0 -16.12 7.97 0.1c2.53,0 4.69,-0.32 6.46,-0.97 1.77,-0.65 3.27,-1.54 4.48,-2.67 1.23,-1.11 2.2,-2.4 2.93,-3.87 0.75,-1.45 1.31,-2.98 1.75,-4.6 -0.62,1.03 -1.54,1.86 -2.72,2.5 -1.19,0.66 -2.48,1.19 -3.94,1.59 -1.43,0.42 -2.93,0.71 -4.48,0.87 -1.57,0.16 -3,0.24 -4.36,0.24 -4.43,0 -8.63,-0.78 -12.54,-2.32 -3.93,-1.54 -7.37,-3.73 -10.29,-6.58 -2.94,-2.87 -5.24,-6.36 -6.94,-10.49 -1.69,-4.14 -2.54,-8.82 -2.54,-14.02 0,-4.76 0.85,-9.2 2.54,-13.3 1.7,-4.1 4,-7.65 6.94,-10.63 2.93,-3 6.36,-5.35 10.29,-7.04 3.92,-1.69 8.11,-2.54 12.54,-2.54 2.07,0 4.09,0.26 6.1,0.77 2.01,0.52 3.95,1.23 5.85,2.14 1.89,0.9 3.69,1.96 5.41,3.19 1.71,1.21 3.33,2.54 4.82,3.96l6.26 -7.51 3.91 0 0 55.21z"/>
  <rect class="fil2 str0" x="2.79" y="2.79" width="977.54" height="978.9"/>
 </g>
</svg>
